<?xml version="1.0" encoding="UTF-8"?> <svg xmlns="http://www.w3.org/2000/svg" xmlns:xlink="http://www.w3.org/1999/xlink" width="164.409" height="61.233" viewBox="0 0 164.409 61.233"><defs><clipPath id="clip-path"><path id="Tracciato_254" data-name="Tracciato 254" d="M0,0H164.409V-61.233H0Z" fill="none"></path></clipPath></defs><g id="Raggruppa_413" data-name="Raggruppa 413" transform="translate(0 61.233)"><g id="Raggruppa_412" data-name="Raggruppa 412" clip-path="url(#clip-path)"><g id="Raggruppa_406" data-name="Raggruppa 406" transform="translate(144.48 -9.611)"><path id="Tracciato_248" data-name="Tracciato 248" d="M0,0C5.952,0,9.289-3.354,9.289-8.383c0-4.942-3.337-8.294-9.289-8.294H-8.8V0ZM-.541-25.855c5.411,0,8.747-3.176,8.747-7.853,0-4.766-3.336-7.942-8.747-7.942H-8.8v15.8Zm-18.9-20.3a4.4,4.4,0,0,1,4.779-4.677H-.271c12.806,0,19.119,6.353,19.119,15.883,0,6.266-2.8,10.589-7.124,12.8v.176c4.509,1.764,8.206,6.794,8.206,13.854C19.93,3.176,12.174,9.176-.63,9.176H-14.658c-2.975,0-4.779-1.764-4.779-4.587Z" fill="#143056"></path></g><g id="Raggruppa_407" data-name="Raggruppa 407" transform="translate(89.355 -45.303)"><path id="Tracciato_249" data-name="Tracciato 249" d="M0,0,19.627,42.227a5.384,5.384,0,0,0,9.356.649,5.1,5.1,0,0,0,.324-5.014L5.037-12.505A5.624,5.624,0,0,0,0-15.791a5.623,5.623,0,0,0-5.037,3.286l-24.27,50.367a5.1,5.1,0,0,0,.325,5.014,5.333,5.333,0,0,0,4.5,2.42,5.342,5.342,0,0,0,4.855-3.069Z" fill="#143056"></path></g><g id="Raggruppa_408" data-name="Raggruppa 408" transform="translate(57.122 -60.422)"><path id="Tracciato_250" data-name="Tracciato 250" d="M0,0H-23.038a2.919,2.919,0,0,0-2.95,2.887V55.072a5.519,5.519,0,0,0,8.3,4.631,4.931,4.931,0,0,0,2.62-4.417V35.21h9.881A4.808,4.808,0,0,0-.919,32.785a5.137,5.137,0,0,0-4.494-7.736h-9.653V10.159H.228A4.809,4.809,0,0,0,4.495,7.735,5.137,5.137,0,0,0,0,0" fill="#143056"></path></g><g id="Raggruppa_409" data-name="Raggruppa 409" transform="translate(8.882 -42.436)"><path id="Tracciato_251" data-name="Tracciato 251" d="M0,0A5.518,5.518,0,0,0-8.3,4.632V37.086A5.519,5.519,0,0,0,0,41.718,4.935,4.935,0,0,0,2.622,37.3V4.416A4.932,4.932,0,0,0,0,0" fill="#143056"></path></g><g id="Raggruppa_410" data-name="Raggruppa 410" transform="translate(83.765 -5.47)"><path id="Tracciato_252" data-name="Tracciato 252" d="M0,0A5.532,5.532,0,0,1,5.591-5.471,5.531,5.531,0,0,1,11.181,0a5.531,5.531,0,0,1-5.59,5.47A5.531,5.531,0,0,1,0,0" fill="#ff423c"></path></g><g id="Raggruppa_411" data-name="Raggruppa 411" transform="translate(3.218 -60.604)"><path id="Tracciato_253" data-name="Tracciato 253" d="M0,0C5.447-2.457,10.733,2.713,8.223,8.045a5.239,5.239,0,0,1-2.569,2.518C.2,13.031-5.094,7.845-2.571,2.512A5.24,5.24,0,0,1,0,0" fill="#50c072"></path></g></g></g></svg> 