<svg id="logo" xmlns="http://www.w3.org/2000/svg" viewBox="0 0 332 99.78">
  <defs>
    <style>
      .cls-1 {
        fill: #195ba2;
      }
    </style>
  </defs>
  <polyline class="cls-1" points="0 0 0.05 99.78 100.49 99.75 100.49 34.67 152.39 99.78 250.78 99.75 250.78 34.28 286.94 78.59 255.81 78.59 255.81 99.71 332 99.78 252.42 0 223.74 0 223.74 78.74 181.71 78.74 181.71 60.63 218.82 60.63 218.82 39.59 181.71 39.59 181.69 20.67 218.75 20.67 218.82 0 152.37 0 152.37 64.28 101.52 0 72.4 0 72.4 78.72 28.11 78.72 28.06 60.5 67.51 60.63 67.51 39.59 28.14 39.59 28.06 20.67 67.43 20.67 67.51 0 0.41 0"/>
</svg>
